M48
;Layer_Color=6321
;FILE_FORMAT=2:5
INCH,LZ
;TYPE=PLATED
T1F00S00C0.02953
T2F00S00C0.03937
T3F00S00C0.04000
T4F00S00C0.04724
T5F00S00C0.06693
T6F00S00C0.12500
;TYPE=NON_PLATED
T7F00S00C0.12500
%
T01
X02065Y01625
Y02025
X02015Y02575
Y02975
X01025
Y02575
X00975Y02025
Y01625
T02
X0189941Y0234095
X0209626
X0114626
X0094941
Y0319094
X0114626
X0189941
X0209626
T03
X0122Y0066
Y0076
Y0086
Y0096
Y0106
Y0116
Y0126
Y0136
Y0146
Y0156
X0182
Y0146
Y0136
Y0126
Y0116
Y0106
Y0096
Y0086
Y0076
Y0066
Y0166
Y0176
Y0186
Y0196
X0122
Y0186
Y0176
Y0166
T04
X0051189Y0031185
X0064968
X0054339Y0051854
X014828
X014513Y0031185
X0158909
X0239071
X0252851
X024222Y0051854
X0249701Y0299886
X015576
X0061819
X0064968Y0320555
X0051189
X014513
X0158909
X0239071
X0252851
T05
X0041346Y0052248
X0074811Y0047524
X0135287Y0052248
X0168752Y0047524
X0229228Y0052248
X0262693Y0047524
Y0304217
X0229228Y0299492
X0168752Y0304217
X0135287Y0299492
X0074811Y0304217
X0041346Y0299492
T06
X001425Y0014
Y0326
X028975
T07
X028975Y0014
M30
