G04 Layer_Color=2752767*
%FSLAX25Y25*%
%MOIN*%
G70*
G01*
G75*
%ADD21C,0.00500*%
%ADD22C,0.00667*%
D21*
X287750Y324000D02*
Y328000D01*
X291750D01*
Y324000D01*
X287750D01*
X12250D02*
Y328000D01*
X16250D01*
Y324000D01*
X12250D01*
X97500Y200500D02*
X95500Y204500D01*
X99500D01*
X97500Y200500D01*
Y160500D02*
X95500Y164500D01*
X99500D01*
X97500Y160500D01*
X102500Y295500D02*
X100500Y299500D01*
X104500D01*
X102500Y295500D01*
Y255500D02*
X100500Y259500D01*
X104500D01*
X102500Y255500D01*
X206500Y200500D02*
X204500Y204500D01*
X208500D01*
X206500Y200500D01*
Y160500D02*
X204500Y164500D01*
X208500D01*
X206500Y160500D01*
X201500Y295500D02*
X199500Y299500D01*
X203500D01*
X201500Y295500D01*
Y255500D02*
X199500Y259500D01*
X203500D01*
X201500Y255500D01*
X252851Y318555D02*
X253851Y319555D01*
X254851D01*
X253851Y320555D01*
X254851Y321555D01*
X253851D01*
X252851Y322555D01*
X251851Y321555D01*
X250851D01*
X251851Y320555D01*
X250851Y319555D01*
X251851D01*
X252851Y318555D01*
X239071D02*
X240071Y319555D01*
X241071D01*
X240071Y320555D01*
X241071Y321555D01*
X240071D01*
X239071Y322555D01*
X238071Y321555D01*
X237071D01*
X238071Y320555D01*
X237071Y319555D01*
X238071D01*
X239071Y318555D01*
X249701Y297886D02*
X250701Y298886D01*
X251701D01*
X250701Y299886D01*
X251701Y300886D01*
X250701D01*
X249701Y301886D01*
X248701Y300886D01*
X247701D01*
X248701Y299886D01*
X247701Y298886D01*
X248701D01*
X249701Y297886D01*
X242220Y49854D02*
X243220Y50854D01*
X244220D01*
X243220Y51854D01*
X244220Y52854D01*
X243220D01*
X242220Y53854D01*
X241220Y52854D01*
X240220D01*
X241220Y51854D01*
X240220Y50854D01*
X241220D01*
X242220Y49854D01*
X252851Y29185D02*
X253851Y30185D01*
X254851D01*
X253851Y31185D01*
X254851Y32185D01*
X253851D01*
X252851Y33185D01*
X251851Y32185D01*
X250851D01*
X251851Y31185D01*
X250851Y30185D01*
X251851D01*
X252851Y29185D01*
X239071D02*
X240071Y30185D01*
X241071D01*
X240071Y31185D01*
X241071Y32185D01*
X240071D01*
X239071Y33185D01*
X238071Y32185D01*
X237071D01*
X238071Y31185D01*
X237071Y30185D01*
X238071D01*
X239071Y29185D01*
X158909Y318555D02*
X159909Y319555D01*
X160909D01*
X159909Y320555D01*
X160909Y321555D01*
X159909D01*
X158909Y322555D01*
X157909Y321555D01*
X156909D01*
X157909Y320555D01*
X156909Y319555D01*
X157909D01*
X158909Y318555D01*
X145130D02*
X146130Y319555D01*
X147130D01*
X146130Y320555D01*
X147130Y321555D01*
X146130D01*
X145130Y322555D01*
X144130Y321555D01*
X143130D01*
X144130Y320555D01*
X143130Y319555D01*
X144130D01*
X145130Y318555D01*
X155760Y297886D02*
X156760Y298886D01*
X157760D01*
X156760Y299886D01*
X157760Y300886D01*
X156760D01*
X155760Y301886D01*
X154760Y300886D01*
X153760D01*
X154760Y299886D01*
X153760Y298886D01*
X154760D01*
X155760Y297886D01*
X148280Y49854D02*
X149279Y50854D01*
X150279D01*
X149279Y51854D01*
X150279Y52854D01*
X149279D01*
X148280Y53854D01*
X147280Y52854D01*
X146280D01*
X147280Y51854D01*
X146280Y50854D01*
X147280D01*
X148280Y49854D01*
X158909Y29185D02*
X159909Y30185D01*
X160909D01*
X159909Y31185D01*
X160909Y32185D01*
X159909D01*
X158909Y33185D01*
X157909Y32185D01*
X156909D01*
X157909Y31185D01*
X156909Y30185D01*
X157909D01*
X158909Y29185D01*
X145130D02*
X146130Y30185D01*
X147130D01*
X146130Y31185D01*
X147130Y32185D01*
X146130D01*
X145130Y33185D01*
X144130Y32185D01*
X143130D01*
X144130Y31185D01*
X143130Y30185D01*
X144130D01*
X145130Y29185D01*
X64968Y318555D02*
X65968Y319555D01*
X66968D01*
X65968Y320555D01*
X66968Y321555D01*
X65968D01*
X64968Y322555D01*
X63968Y321555D01*
X62968D01*
X63968Y320555D01*
X62968Y319555D01*
X63968D01*
X64968Y318555D01*
X51189D02*
X52189Y319555D01*
X53189D01*
X52189Y320555D01*
X53189Y321555D01*
X52189D01*
X51189Y322555D01*
X50189Y321555D01*
X49189D01*
X50189Y320555D01*
X49189Y319555D01*
X50189D01*
X51189Y318555D01*
X61819Y297886D02*
X62819Y298886D01*
X63819D01*
X62819Y299886D01*
X63819Y300886D01*
X62819D01*
X61819Y301886D01*
X60819Y300886D01*
X59819D01*
X60819Y299886D01*
X59819Y298886D01*
X60819D01*
X61819Y297886D01*
X54339Y49854D02*
X55339Y50854D01*
X56339D01*
X55339Y51854D01*
X56339Y52854D01*
X55339D01*
X54339Y53854D01*
X53338Y52854D01*
X52338D01*
X53338Y51854D01*
X52338Y50854D01*
X53338D01*
X54339Y49854D01*
X64968Y29185D02*
X65968Y30185D01*
X66968D01*
X65968Y31185D01*
X66968Y32185D01*
X65968D01*
X64968Y33185D01*
X63968Y32185D01*
X62968D01*
X63968Y31185D01*
X62968Y30185D01*
X63968D01*
X64968Y29185D01*
X51189D02*
X52189Y30185D01*
X53189D01*
X52189Y31185D01*
X53189Y32185D01*
X52189D01*
X51189Y33185D01*
X50189Y32185D01*
X49189D01*
X50189Y31185D01*
X49189Y30185D01*
X50189D01*
X51189Y29185D01*
X207626Y317094D02*
X208626Y319094D01*
X207626Y321094D01*
X209626Y320094D01*
X211626Y321094D01*
X210626Y319094D01*
X211626Y317094D01*
X209626Y318094D01*
X207626Y317094D01*
X187941D02*
X188941Y319094D01*
X187941Y321094D01*
X189941Y320094D01*
X191941Y321094D01*
X190941Y319094D01*
X191941Y317094D01*
X189941Y318094D01*
X187941Y317094D01*
X207626Y232095D02*
X208626Y234095D01*
X207626Y236094D01*
X209626Y235094D01*
X211626Y236094D01*
X210626Y234095D01*
X211626Y232095D01*
X209626Y233095D01*
X207626Y232095D01*
X187941D02*
X188941Y234095D01*
X187941Y236094D01*
X189941Y235094D01*
X191941Y236094D01*
X190941Y234095D01*
X191941Y232095D01*
X189941Y233095D01*
X187941Y232095D01*
X112626Y317094D02*
X113626Y319094D01*
X112626Y321094D01*
X114626Y320094D01*
X116626Y321094D01*
X115626Y319094D01*
X116626Y317094D01*
X114626Y318094D01*
X112626Y317094D01*
X92941D02*
X93941Y319094D01*
X92941Y321094D01*
X94941Y320094D01*
X96941Y321094D01*
X95941Y319094D01*
X96941Y317094D01*
X94941Y318094D01*
X92941Y317094D01*
X12250Y12000D02*
Y16000D01*
X16250D01*
Y12000D01*
X12250D01*
X288750Y13000D02*
Y12000D01*
X290750D01*
Y13000D01*
X291750D01*
Y15000D01*
X290750D01*
Y16000D01*
X288750D01*
Y15000D01*
X287750D01*
Y13000D01*
X288750D01*
X112626Y232095D02*
X113626Y234095D01*
X112626Y236094D01*
X114626Y235094D01*
X116626Y236094D01*
X115626Y234095D01*
X116626Y232095D01*
X114626Y233095D01*
X112626Y232095D01*
X92941D02*
X93941Y234095D01*
X92941Y236094D01*
X94941Y235094D01*
X96941Y236094D01*
X95941Y234095D01*
X96941Y232095D01*
X94941Y233095D01*
X92941Y232095D01*
X227228Y50248D02*
X228228D01*
X229228Y51248D01*
X230228Y50248D01*
X231228D01*
Y51248D01*
X230228Y52248D01*
X231228Y53248D01*
Y54248D01*
X230228D01*
X229228Y53248D01*
X228228Y54248D01*
X227228D01*
Y53248D01*
X228228Y52248D01*
X227228Y51248D01*
Y50248D01*
Y297492D02*
X228228D01*
X229228Y298492D01*
X230228Y297492D01*
X231228D01*
Y298492D01*
X230228Y299492D01*
X231228Y300492D01*
Y301492D01*
X230228D01*
X229228Y300492D01*
X228228Y301492D01*
X227228D01*
Y300492D01*
X228228Y299492D01*
X227228Y298492D01*
Y297492D01*
X260693Y302217D02*
X261693D01*
X262693Y303217D01*
X263693Y302217D01*
X264693D01*
Y303217D01*
X263693Y304217D01*
X264693Y305217D01*
Y306217D01*
X263693D01*
X262693Y305217D01*
X261693Y306217D01*
X260693D01*
Y305217D01*
X261693Y304217D01*
X260693Y303217D01*
Y302217D01*
Y45524D02*
X261693D01*
X262693Y46524D01*
X263693Y45524D01*
X264693D01*
Y46524D01*
X263693Y47524D01*
X264693Y48524D01*
Y49524D01*
X263693D01*
X262693Y48524D01*
X261693Y49524D01*
X260693D01*
Y48524D01*
X261693Y47524D01*
X260693Y46524D01*
Y45524D01*
X133287Y50248D02*
X134287D01*
X135287Y51248D01*
X136287Y50248D01*
X137287D01*
Y51248D01*
X136287Y52248D01*
X137287Y53248D01*
Y54248D01*
X136287D01*
X135287Y53248D01*
X134287Y54248D01*
X133287D01*
Y53248D01*
X134287Y52248D01*
X133287Y51248D01*
Y50248D01*
Y297492D02*
X134287D01*
X135287Y298492D01*
X136287Y297492D01*
X137287D01*
Y298492D01*
X136287Y299492D01*
X137287Y300492D01*
Y301492D01*
X136287D01*
X135287Y300492D01*
X134287Y301492D01*
X133287D01*
Y300492D01*
X134287Y299492D01*
X133287Y298492D01*
Y297492D01*
X166752Y302217D02*
X167752D01*
X168752Y303217D01*
X169752Y302217D01*
X170752D01*
Y303217D01*
X169752Y304217D01*
X170752Y305217D01*
Y306217D01*
X169752D01*
X168752Y305217D01*
X167752Y306217D01*
X166752D01*
Y305217D01*
X167752Y304217D01*
X166752Y303217D01*
Y302217D01*
Y45524D02*
X167752D01*
X168752Y46524D01*
X169752Y45524D01*
X170752D01*
Y46524D01*
X169752Y47524D01*
X170752Y48524D01*
Y49524D01*
X169752D01*
X168752Y48524D01*
X167752Y49524D01*
X166752D01*
Y48524D01*
X167752Y47524D01*
X166752Y46524D01*
Y45524D01*
X39346Y50248D02*
X40346D01*
X41346Y51248D01*
X42346Y50248D01*
X43346D01*
Y51248D01*
X42346Y52248D01*
X43346Y53248D01*
Y54248D01*
X42346D01*
X41346Y53248D01*
X40346Y54248D01*
X39346D01*
Y53248D01*
X40346Y52248D01*
X39346Y51248D01*
Y50248D01*
Y297492D02*
X40346D01*
X41346Y298492D01*
X42346Y297492D01*
X43346D01*
Y298492D01*
X42346Y299492D01*
X43346Y300492D01*
Y301492D01*
X42346D01*
X41346Y300492D01*
X40346Y301492D01*
X39346D01*
Y300492D01*
X40346Y299492D01*
X39346Y298492D01*
Y297492D01*
X72811Y302217D02*
X73811D01*
X74811Y303217D01*
X75811Y302217D01*
X76811D01*
Y303217D01*
X75811Y304217D01*
X76811Y305217D01*
Y306217D01*
X75811D01*
X74811Y305217D01*
X73811Y306217D01*
X72811D01*
Y305217D01*
X73811Y304217D01*
X72811Y303217D01*
Y302217D01*
Y45524D02*
X73811D01*
X74811Y46524D01*
X75811Y45524D01*
X76811D01*
Y46524D01*
X75811Y47524D01*
X76811Y48524D01*
Y49524D01*
X75811D01*
X74811Y48524D01*
X73811Y49524D01*
X72811D01*
Y48524D01*
X73811Y47524D01*
X72811Y46524D01*
Y45524D01*
D22*
X184000Y196000D02*
G03*
X184000Y196000I-2000J0D01*
G01*
Y186000D02*
G03*
X184000Y186000I-2000J0D01*
G01*
Y176000D02*
G03*
X184000Y176000I-2000J0D01*
G01*
Y166000D02*
G03*
X184000Y166000I-2000J0D01*
G01*
Y156000D02*
G03*
X184000Y156000I-2000J0D01*
G01*
Y146000D02*
G03*
X184000Y146000I-2000J0D01*
G01*
Y136000D02*
G03*
X184000Y136000I-2000J0D01*
G01*
X124000D02*
G03*
X124000Y136000I-2000J0D01*
G01*
Y146000D02*
G03*
X124000Y146000I-2000J0D01*
G01*
Y176000D02*
G03*
X124000Y176000I-2000J0D01*
G01*
Y186000D02*
G03*
X124000Y186000I-2000J0D01*
G01*
Y196000D02*
G03*
X124000Y196000I-2000J0D01*
G01*
Y156000D02*
G03*
X124000Y156000I-2000J0D01*
G01*
Y166000D02*
G03*
X124000Y166000I-2000J0D01*
G01*
Y126000D02*
G03*
X124000Y126000I-2000J0D01*
G01*
Y116000D02*
G03*
X124000Y116000I-2000J0D01*
G01*
Y106000D02*
G03*
X124000Y106000I-2000J0D01*
G01*
Y96000D02*
G03*
X124000Y96000I-2000J0D01*
G01*
Y86000D02*
G03*
X124000Y86000I-2000J0D01*
G01*
Y76000D02*
G03*
X124000Y76000I-2000J0D01*
G01*
Y66000D02*
G03*
X124000Y66000I-2000J0D01*
G01*
X184000D02*
G03*
X184000Y66000I-2000J0D01*
G01*
Y76000D02*
G03*
X184000Y76000I-2000J0D01*
G01*
Y86000D02*
G03*
X184000Y86000I-2000J0D01*
G01*
Y96000D02*
G03*
X184000Y96000I-2000J0D01*
G01*
Y106000D02*
G03*
X184000Y106000I-2000J0D01*
G01*
Y116000D02*
G03*
X184000Y116000I-2000J0D01*
G01*
Y126000D02*
G03*
X184000Y126000I-2000J0D01*
G01*
M02*
