G04 Layer_Color=20142*
%FSLAX25Y25*%
%MOIN*%
G70*
G01*
G75*
%ADD11C,0.01000*%
%ADD16C,0.19800*%
%ADD17C,0.06800*%
%ADD18C,0.07493*%
%ADD19C,0.08674*%
D11*
X21502Y121999D02*
Y118000D01*
X24501D01*
Y119999D01*
Y118000D01*
X27500D01*
X23501Y123998D02*
X27500D01*
X25501D01*
X24501Y124998D01*
X23501Y125997D01*
Y126997D01*
X27500Y130996D02*
Y132995D01*
X26500Y133995D01*
X24501D01*
X23501Y132995D01*
Y130996D01*
X24501Y129996D01*
X26500D01*
X27500Y130996D01*
Y135994D02*
X23501D01*
Y136994D01*
X24501Y137994D01*
X27500D01*
X24501D01*
X23501Y138993D01*
X24501Y139993D01*
X27500D01*
X23501Y141992D02*
Y142992D01*
X24501D01*
Y141992D01*
X23501D01*
X26500D02*
Y142992D01*
X27500D01*
Y141992D01*
X26500D01*
X21502Y152989D02*
Y156987D01*
Y154988D01*
X27500D01*
X21502Y158987D02*
X27500D01*
X24501D01*
X23501Y159986D01*
Y161986D01*
X24501Y162985D01*
X27500D01*
Y167984D02*
Y165984D01*
X26500Y164985D01*
X24501D01*
X23501Y165984D01*
Y167984D01*
X24501Y168983D01*
X25501D01*
Y164985D01*
X21502Y176981D02*
Y178980D01*
Y177981D01*
X27500D01*
Y176981D01*
Y178980D01*
Y181979D02*
X23501D01*
Y184978D01*
X24501Y185978D01*
X27500D01*
X23501Y188977D02*
Y190976D01*
X24501Y191976D01*
X27500D01*
Y188977D01*
X26500Y187977D01*
X25501Y188977D01*
Y191976D01*
X23501Y197974D02*
Y194975D01*
X24501Y193975D01*
X26500D01*
X27500Y194975D01*
Y197974D01*
X21502Y199973D02*
X27500D01*
X24501D01*
X23501Y200973D01*
Y202973D01*
X24501Y203972D01*
X27500D01*
X23501Y205972D02*
X26500D01*
X27500Y206971D01*
Y209970D01*
X23501D01*
X27500Y211970D02*
Y214969D01*
X26500Y215968D01*
X25501Y214969D01*
Y212969D01*
X24501Y211970D01*
X23501Y212969D01*
Y215968D01*
X27500Y223966D02*
X21502D01*
Y226965D01*
X22502Y227964D01*
X24501D01*
X25501Y226965D01*
Y223966D01*
X23501Y229964D02*
X27500D01*
X25501D01*
X24501Y230963D01*
X23501Y231963D01*
Y232963D01*
X27500Y236962D02*
Y238961D01*
X26500Y239961D01*
X24501D01*
X23501Y238961D01*
Y236962D01*
X24501Y235962D01*
X26500D01*
X27500Y236962D01*
X29499Y241960D02*
Y242960D01*
X28500Y243959D01*
X23501D01*
X27500Y250957D02*
Y248958D01*
X26500Y247958D01*
X24501D01*
X23501Y248958D01*
Y250957D01*
X24501Y251957D01*
X25501D01*
Y247958D01*
X23501Y257955D02*
Y254956D01*
X24501Y253956D01*
X26500D01*
X27500Y254956D01*
Y257955D01*
X22502Y260954D02*
X23501D01*
Y259954D01*
Y261953D01*
Y260954D01*
X26500D01*
X27500Y261953D01*
X7002Y118000D02*
Y121999D01*
Y119999D01*
X13000D01*
Y124998D02*
Y126997D01*
X12000Y127997D01*
X10001D01*
X9001Y126997D01*
Y124998D01*
X10001Y123998D01*
X12000D01*
X13000Y124998D01*
X9001Y129996D02*
Y130996D01*
X10001D01*
Y129996D01*
X9001D01*
X12000D02*
Y130996D01*
X13000D01*
Y129996D01*
X12000D01*
X7002Y140993D02*
X13000D01*
Y143992D01*
X12000Y144991D01*
X11001D01*
X10001Y143992D01*
Y140993D01*
Y143992D01*
X9001Y144991D01*
X8002D01*
X7002Y143992D01*
Y140993D01*
X13000Y146991D02*
Y148990D01*
Y147990D01*
X9001D01*
Y146991D01*
X8002Y152989D02*
X9001D01*
Y151989D01*
Y153988D01*
Y152989D01*
X12000D01*
X13000Y153988D01*
Y156987D02*
Y158987D01*
Y157987D01*
X9001D01*
Y156987D01*
X13000Y161986D02*
X9001D01*
Y162985D01*
X10001Y163985D01*
X13000D01*
X10001D01*
X9001Y164985D01*
X10001Y165984D01*
X13000D01*
Y167984D02*
Y169983D01*
Y168983D01*
X9001D01*
Y167984D01*
D16*
X289750Y326000D02*
D03*
X14250D02*
D03*
Y14000D02*
D03*
X289750D02*
D03*
D17*
X182000Y196000D02*
D03*
Y186000D02*
D03*
Y176000D02*
D03*
Y166000D02*
D03*
Y156000D02*
D03*
Y146000D02*
D03*
Y136000D02*
D03*
X122000D02*
D03*
Y146000D02*
D03*
Y176000D02*
D03*
Y186000D02*
D03*
Y196000D02*
D03*
Y156000D02*
D03*
Y166000D02*
D03*
Y126000D02*
D03*
Y116000D02*
D03*
Y106000D02*
D03*
Y96000D02*
D03*
Y86000D02*
D03*
Y76000D02*
D03*
Y66000D02*
D03*
X182000D02*
D03*
Y76000D02*
D03*
Y86000D02*
D03*
Y96000D02*
D03*
Y106000D02*
D03*
Y116000D02*
D03*
Y126000D02*
D03*
D18*
X97500Y202500D02*
D03*
Y162500D02*
D03*
X102500Y297500D02*
D03*
Y257500D02*
D03*
X206500Y202500D02*
D03*
Y162500D02*
D03*
X201500Y297500D02*
D03*
Y257500D02*
D03*
X229228Y52248D02*
D03*
Y299492D02*
D03*
X262693Y304217D02*
D03*
Y47524D02*
D03*
X135287Y52248D02*
D03*
Y299492D02*
D03*
X168752Y304217D02*
D03*
Y47524D02*
D03*
X41346Y52248D02*
D03*
Y299492D02*
D03*
X74811Y304217D02*
D03*
Y47524D02*
D03*
D19*
X252851Y320555D02*
D03*
X239071D02*
D03*
X249701Y299886D02*
D03*
X242220Y51854D02*
D03*
X252851Y31185D02*
D03*
X239071D02*
D03*
X158909Y320555D02*
D03*
X145130D02*
D03*
X155760Y299886D02*
D03*
X148280Y51854D02*
D03*
X158909Y31185D02*
D03*
X145130D02*
D03*
X64968Y320555D02*
D03*
X51189D02*
D03*
X61819Y299886D02*
D03*
X54339Y51854D02*
D03*
X64968Y31185D02*
D03*
X51189D02*
D03*
X209626Y319094D02*
D03*
X189941D02*
D03*
X209626Y234095D02*
D03*
X189941D02*
D03*
X114626Y319094D02*
D03*
X94941D02*
D03*
X114626Y234095D02*
D03*
X94941D02*
D03*
M02*
