G04 Layer_Physical_Order=2*
G04 Layer_Color=11436288*
%FSLAX25Y25*%
%MOIN*%
G70*
G01*
G75*
%ADD12C,0.19000*%
%ADD13C,0.06000*%
%ADD14C,0.06693*%
%ADD15C,0.07874*%
G36*
X304000D02*
X0D01*
Y340000D01*
X0Y340000D01*
X304000D01*
Y0D01*
D02*
G37*
%LPC*%
G36*
X122000Y100034D02*
X120956Y99897D01*
X119983Y99494D01*
X119147Y98853D01*
X118506Y98017D01*
X118103Y97044D01*
X117965Y96000D01*
X118103Y94956D01*
X118506Y93983D01*
X119147Y93147D01*
X119983Y92506D01*
X120956Y92103D01*
X122000Y91966D01*
X123044Y92103D01*
X124017Y92506D01*
X124853Y93147D01*
X125494Y93983D01*
X125897Y94956D01*
X126034Y96000D01*
X125897Y97044D01*
X125494Y98017D01*
X124853Y98853D01*
X124017Y99494D01*
X123044Y99897D01*
X122000Y100034D01*
D02*
G37*
G36*
X182000Y90035D02*
X180956Y89897D01*
X179983Y89494D01*
X179147Y88853D01*
X178506Y88017D01*
X178103Y87044D01*
X177965Y86000D01*
X178103Y84956D01*
X178506Y83983D01*
X179147Y83147D01*
X179983Y82506D01*
X180956Y82103D01*
X182000Y81966D01*
X183044Y82103D01*
X184017Y82506D01*
X184853Y83147D01*
X185494Y83983D01*
X185897Y84956D01*
X186035Y86000D01*
X185897Y87044D01*
X185494Y88017D01*
X184853Y88853D01*
X184017Y89494D01*
X183044Y89897D01*
X182000Y90035D01*
D02*
G37*
G36*
X122000D02*
X120956Y89897D01*
X119983Y89494D01*
X119147Y88853D01*
X118506Y88017D01*
X118103Y87044D01*
X117965Y86000D01*
X118103Y84956D01*
X118506Y83983D01*
X119147Y83147D01*
X119983Y82506D01*
X120956Y82103D01*
X122000Y81966D01*
X123044Y82103D01*
X124017Y82506D01*
X124853Y83147D01*
X125494Y83983D01*
X125897Y84956D01*
X126034Y86000D01*
X125897Y87044D01*
X125494Y88017D01*
X124853Y88853D01*
X124017Y89494D01*
X123044Y89897D01*
X122000Y90035D01*
D02*
G37*
G36*
X182000Y100034D02*
X180956Y99897D01*
X179983Y99494D01*
X179147Y98853D01*
X178506Y98017D01*
X178103Y97044D01*
X177965Y96000D01*
X178103Y94956D01*
X178506Y93983D01*
X179147Y93147D01*
X179983Y92506D01*
X180956Y92103D01*
X182000Y91966D01*
X183044Y92103D01*
X184017Y92506D01*
X184853Y93147D01*
X185494Y93983D01*
X185897Y94956D01*
X186035Y96000D01*
X185897Y97044D01*
X185494Y98017D01*
X184853Y98853D01*
X184017Y99494D01*
X183044Y99897D01*
X182000Y100034D01*
D02*
G37*
G36*
X122000Y120035D02*
X120956Y119897D01*
X119983Y119494D01*
X119147Y118853D01*
X118506Y118017D01*
X118103Y117044D01*
X117965Y116000D01*
X118103Y114956D01*
X118506Y113983D01*
X119147Y113147D01*
X119983Y112506D01*
X120956Y112103D01*
X122000Y111966D01*
X123044Y112103D01*
X124017Y112506D01*
X124853Y113147D01*
X125494Y113983D01*
X125897Y114956D01*
X126034Y116000D01*
X125897Y117044D01*
X125494Y118017D01*
X124853Y118853D01*
X124017Y119494D01*
X123044Y119897D01*
X122000Y120035D01*
D02*
G37*
G36*
X182000Y110035D02*
X180956Y109897D01*
X179983Y109494D01*
X179147Y108853D01*
X178506Y108017D01*
X178103Y107044D01*
X177965Y106000D01*
X178103Y104956D01*
X178506Y103983D01*
X179147Y103147D01*
X179983Y102506D01*
X180956Y102103D01*
X182000Y101965D01*
X183044Y102103D01*
X184017Y102506D01*
X184853Y103147D01*
X185494Y103983D01*
X185897Y104956D01*
X186035Y106000D01*
X185897Y107044D01*
X185494Y108017D01*
X184853Y108853D01*
X184017Y109494D01*
X183044Y109897D01*
X182000Y110035D01*
D02*
G37*
G36*
X122000D02*
X120956Y109897D01*
X119983Y109494D01*
X119147Y108853D01*
X118506Y108017D01*
X118103Y107044D01*
X117965Y106000D01*
X118103Y104956D01*
X118506Y103983D01*
X119147Y103147D01*
X119983Y102506D01*
X120956Y102103D01*
X122000Y101965D01*
X123044Y102103D01*
X124017Y102506D01*
X124853Y103147D01*
X125494Y103983D01*
X125897Y104956D01*
X126034Y106000D01*
X125897Y107044D01*
X125494Y108017D01*
X124853Y108853D01*
X124017Y109494D01*
X123044Y109897D01*
X122000Y110035D01*
D02*
G37*
G36*
X229228Y56632D02*
X228094Y56483D01*
X227036Y56045D01*
X226129Y55348D01*
X225432Y54440D01*
X224994Y53383D01*
X224844Y52248D01*
X224994Y51113D01*
X225432Y50056D01*
X226129Y49148D01*
X227036Y48451D01*
X228094Y48013D01*
X229228Y47864D01*
X230363Y48013D01*
X231420Y48451D01*
X232328Y49148D01*
X233025Y50056D01*
X233463Y51113D01*
X233612Y52248D01*
X233463Y53383D01*
X233025Y54440D01*
X232328Y55348D01*
X231420Y56045D01*
X230363Y56483D01*
X229228Y56632D01*
D02*
G37*
G36*
X135287D02*
X134153Y56483D01*
X133095Y56045D01*
X132187Y55348D01*
X131491Y54440D01*
X131053Y53383D01*
X130903Y52248D01*
X131053Y51113D01*
X131491Y50056D01*
X132187Y49148D01*
X133095Y48451D01*
X134153Y48013D01*
X135287Y47864D01*
X136422Y48013D01*
X137479Y48451D01*
X138387Y49148D01*
X139084Y50056D01*
X139522Y51113D01*
X139671Y52248D01*
X139522Y53383D01*
X139084Y54440D01*
X138387Y55348D01*
X137479Y56045D01*
X136422Y56483D01*
X135287Y56632D01*
D02*
G37*
G36*
X41346D02*
X40212Y56483D01*
X39154Y56045D01*
X38247Y55348D01*
X37550Y54440D01*
X37112Y53383D01*
X36962Y52248D01*
X37112Y51113D01*
X37550Y50056D01*
X38247Y49148D01*
X39154Y48451D01*
X40212Y48013D01*
X41346Y47864D01*
X42481Y48013D01*
X43538Y48451D01*
X44446Y49148D01*
X45143Y50056D01*
X45581Y51113D01*
X45730Y52248D01*
X45581Y53383D01*
X45143Y54440D01*
X44446Y55348D01*
X43538Y56045D01*
X42481Y56483D01*
X41346Y56632D01*
D02*
G37*
G36*
X122000Y70034D02*
X120956Y69897D01*
X119983Y69494D01*
X119147Y68853D01*
X118506Y68017D01*
X118103Y67044D01*
X117965Y66000D01*
X118103Y64956D01*
X118506Y63983D01*
X119147Y63147D01*
X119983Y62506D01*
X120956Y62103D01*
X122000Y61966D01*
X123044Y62103D01*
X124017Y62506D01*
X124853Y63147D01*
X125494Y63983D01*
X125897Y64956D01*
X126034Y66000D01*
X125897Y67044D01*
X125494Y68017D01*
X124853Y68853D01*
X124017Y69494D01*
X123044Y69897D01*
X122000Y70034D01*
D02*
G37*
G36*
X182000Y80035D02*
X180956Y79897D01*
X179983Y79494D01*
X179147Y78853D01*
X178506Y78017D01*
X178103Y77044D01*
X177965Y76000D01*
X178103Y74956D01*
X178506Y73983D01*
X179147Y73147D01*
X179983Y72506D01*
X180956Y72103D01*
X182000Y71965D01*
X183044Y72103D01*
X184017Y72506D01*
X184853Y73147D01*
X185494Y73983D01*
X185897Y74956D01*
X186035Y76000D01*
X185897Y77044D01*
X185494Y78017D01*
X184853Y78853D01*
X184017Y79494D01*
X183044Y79897D01*
X182000Y80035D01*
D02*
G37*
G36*
X122000D02*
X120956Y79897D01*
X119983Y79494D01*
X119147Y78853D01*
X118506Y78017D01*
X118103Y77044D01*
X117965Y76000D01*
X118103Y74956D01*
X118506Y73983D01*
X119147Y73147D01*
X119983Y72506D01*
X120956Y72103D01*
X122000Y71965D01*
X123044Y72103D01*
X124017Y72506D01*
X124853Y73147D01*
X125494Y73983D01*
X125897Y74956D01*
X126034Y76000D01*
X125897Y77044D01*
X125494Y78017D01*
X124853Y78853D01*
X124017Y79494D01*
X123044Y79897D01*
X122000Y80035D01*
D02*
G37*
G36*
X182000Y70034D02*
X180956Y69897D01*
X179983Y69494D01*
X179147Y68853D01*
X178506Y68017D01*
X178103Y67044D01*
X177965Y66000D01*
X178103Y64956D01*
X178506Y63983D01*
X179147Y63147D01*
X179983Y62506D01*
X180956Y62103D01*
X182000Y61966D01*
X183044Y62103D01*
X184017Y62506D01*
X184853Y63147D01*
X185494Y63983D01*
X185897Y64956D01*
X186035Y66000D01*
X185897Y67044D01*
X185494Y68017D01*
X184853Y68853D01*
X184017Y69494D01*
X183044Y69897D01*
X182000Y70034D01*
D02*
G37*
G36*
Y120035D02*
X180956Y119897D01*
X179983Y119494D01*
X179147Y118853D01*
X178506Y118017D01*
X178103Y117044D01*
X177965Y116000D01*
X178103Y114956D01*
X178506Y113983D01*
X179147Y113147D01*
X179983Y112506D01*
X180956Y112103D01*
X182000Y111966D01*
X183044Y112103D01*
X184017Y112506D01*
X184853Y113147D01*
X185494Y113983D01*
X185897Y114956D01*
X186035Y116000D01*
X185897Y117044D01*
X185494Y118017D01*
X184853Y118853D01*
X184017Y119494D01*
X183044Y119897D01*
X182000Y120035D01*
D02*
G37*
G36*
X101818Y162000D02*
X98000D01*
Y158182D01*
X98635Y158265D01*
X99692Y158703D01*
X100600Y159400D01*
X101297Y160308D01*
X101735Y161365D01*
X101818Y162000D01*
D02*
G37*
G36*
X97000D02*
X93182D01*
X93265Y161365D01*
X93703Y160308D01*
X94400Y159400D01*
X95308Y158703D01*
X96365Y158265D01*
X97000Y158182D01*
Y162000D01*
D02*
G37*
G36*
X182000Y160035D02*
X180956Y159897D01*
X179983Y159494D01*
X179147Y158853D01*
X178506Y158017D01*
X178103Y157044D01*
X177965Y156000D01*
X178103Y154956D01*
X178506Y153983D01*
X179147Y153147D01*
X179983Y152506D01*
X180956Y152103D01*
X182000Y151965D01*
X183044Y152103D01*
X184017Y152506D01*
X184853Y153147D01*
X185494Y153983D01*
X185897Y154956D01*
X186035Y156000D01*
X185897Y157044D01*
X185494Y158017D01*
X184853Y158853D01*
X184017Y159494D01*
X183044Y159897D01*
X182000Y160035D01*
D02*
G37*
G36*
X206000Y162000D02*
X202182D01*
X202265Y161365D01*
X202703Y160308D01*
X203400Y159400D01*
X204308Y158703D01*
X205365Y158265D01*
X206000Y158182D01*
Y162000D01*
D02*
G37*
G36*
X182000Y170035D02*
X180956Y169897D01*
X179983Y169494D01*
X179147Y168853D01*
X178506Y168017D01*
X178103Y167044D01*
X177965Y166000D01*
X178103Y164956D01*
X178506Y163983D01*
X179147Y163147D01*
X179983Y162506D01*
X180956Y162103D01*
X182000Y161966D01*
X183044Y162103D01*
X184017Y162506D01*
X184853Y163147D01*
X185494Y163983D01*
X185897Y164956D01*
X186035Y166000D01*
X185897Y167044D01*
X185494Y168017D01*
X184853Y168853D01*
X184017Y169494D01*
X183044Y169897D01*
X182000Y170035D01*
D02*
G37*
G36*
X122000D02*
X120956Y169897D01*
X119983Y169494D01*
X119147Y168853D01*
X118506Y168017D01*
X118103Y167044D01*
X117965Y166000D01*
X118103Y164956D01*
X118506Y163983D01*
X119147Y163147D01*
X119983Y162506D01*
X120956Y162103D01*
X122000Y161966D01*
X123044Y162103D01*
X124017Y162506D01*
X124853Y163147D01*
X125494Y163983D01*
X125897Y164956D01*
X126034Y166000D01*
X125897Y167044D01*
X125494Y168017D01*
X124853Y168853D01*
X124017Y169494D01*
X123044Y169897D01*
X122000Y170035D01*
D02*
G37*
G36*
X210818Y162000D02*
X207000D01*
Y158182D01*
X207635Y158265D01*
X208692Y158703D01*
X209600Y159400D01*
X210297Y160308D01*
X210735Y161365D01*
X210818Y162000D01*
D02*
G37*
G36*
X122000Y140034D02*
X120956Y139897D01*
X119983Y139494D01*
X119147Y138853D01*
X118506Y138017D01*
X118103Y137044D01*
X117965Y136000D01*
X118103Y134956D01*
X118506Y133983D01*
X119147Y133147D01*
X119983Y132506D01*
X120956Y132103D01*
X122000Y131965D01*
X123044Y132103D01*
X124017Y132506D01*
X124853Y133147D01*
X125494Y133983D01*
X125897Y134956D01*
X126034Y136000D01*
X125897Y137044D01*
X125494Y138017D01*
X124853Y138853D01*
X124017Y139494D01*
X123044Y139897D01*
X122000Y140034D01*
D02*
G37*
G36*
X182000Y130034D02*
X180956Y129897D01*
X179983Y129494D01*
X179147Y128853D01*
X178506Y128017D01*
X178103Y127044D01*
X177965Y126000D01*
X178103Y124956D01*
X178506Y123983D01*
X179147Y123147D01*
X179983Y122506D01*
X180956Y122103D01*
X182000Y121966D01*
X183044Y122103D01*
X184017Y122506D01*
X184853Y123147D01*
X185494Y123983D01*
X185897Y124956D01*
X186035Y126000D01*
X185897Y127044D01*
X185494Y128017D01*
X184853Y128853D01*
X184017Y129494D01*
X183044Y129897D01*
X182000Y130034D01*
D02*
G37*
G36*
X122000D02*
X120956Y129897D01*
X119983Y129494D01*
X119147Y128853D01*
X118506Y128017D01*
X118103Y127044D01*
X117965Y126000D01*
X118103Y124956D01*
X118506Y123983D01*
X119147Y123147D01*
X119983Y122506D01*
X120956Y122103D01*
X122000Y121966D01*
X123044Y122103D01*
X124017Y122506D01*
X124853Y123147D01*
X125494Y123983D01*
X125897Y124956D01*
X126034Y126000D01*
X125897Y127044D01*
X125494Y128017D01*
X124853Y128853D01*
X124017Y129494D01*
X123044Y129897D01*
X122000Y130034D01*
D02*
G37*
G36*
X182000Y140034D02*
X180956Y139897D01*
X179983Y139494D01*
X179147Y138853D01*
X178506Y138017D01*
X178103Y137044D01*
X177965Y136000D01*
X178103Y134956D01*
X178506Y133983D01*
X179147Y133147D01*
X179983Y132506D01*
X180956Y132103D01*
X182000Y131965D01*
X183044Y132103D01*
X184017Y132506D01*
X184853Y133147D01*
X185494Y133983D01*
X185897Y134956D01*
X186035Y136000D01*
X185897Y137044D01*
X185494Y138017D01*
X184853Y138853D01*
X184017Y139494D01*
X183044Y139897D01*
X182000Y140034D01*
D02*
G37*
G36*
X122000Y160035D02*
X120956Y159897D01*
X119983Y159494D01*
X119147Y158853D01*
X118506Y158017D01*
X118103Y157044D01*
X117965Y156000D01*
X118103Y154956D01*
X118506Y153983D01*
X119147Y153147D01*
X119983Y152506D01*
X120956Y152103D01*
X122000Y151965D01*
X123044Y152103D01*
X124017Y152506D01*
X124853Y153147D01*
X125494Y153983D01*
X125897Y154956D01*
X126034Y156000D01*
X125897Y157044D01*
X125494Y158017D01*
X124853Y158853D01*
X124017Y159494D01*
X123044Y159897D01*
X122000Y160035D01*
D02*
G37*
G36*
X182000Y150034D02*
X180956Y149897D01*
X179983Y149494D01*
X179147Y148853D01*
X178506Y148017D01*
X178103Y147044D01*
X177965Y146000D01*
X178103Y144956D01*
X178506Y143983D01*
X179147Y143147D01*
X179983Y142506D01*
X180956Y142103D01*
X182000Y141965D01*
X183044Y142103D01*
X184017Y142506D01*
X184853Y143147D01*
X185494Y143983D01*
X185897Y144956D01*
X186035Y146000D01*
X185897Y147044D01*
X185494Y148017D01*
X184853Y148853D01*
X184017Y149494D01*
X183044Y149897D01*
X182000Y150034D01*
D02*
G37*
G36*
X122000D02*
X120956Y149897D01*
X119983Y149494D01*
X119147Y148853D01*
X118506Y148017D01*
X118103Y147044D01*
X117965Y146000D01*
X118103Y144956D01*
X118506Y143983D01*
X119147Y143147D01*
X119983Y142506D01*
X120956Y142103D01*
X122000Y141965D01*
X123044Y142103D01*
X124017Y142506D01*
X124853Y143147D01*
X125494Y143983D01*
X125897Y144956D01*
X126034Y146000D01*
X125897Y147044D01*
X125494Y148017D01*
X124853Y148853D01*
X124017Y149494D01*
X123044Y149897D01*
X122000Y150034D01*
D02*
G37*
G36*
X158909Y36165D02*
X157621Y35995D01*
X156420Y35497D01*
X155388Y34706D01*
X154597Y33675D01*
X154100Y32474D01*
X153930Y31185D01*
X154100Y29896D01*
X154597Y28695D01*
X155388Y27664D01*
X156420Y26873D01*
X157621Y26375D01*
X158909Y26205D01*
X160198Y26375D01*
X161399Y26873D01*
X162431Y27664D01*
X163222Y28695D01*
X163719Y29896D01*
X163889Y31185D01*
X163719Y32474D01*
X163222Y33675D01*
X162431Y34706D01*
X161399Y35497D01*
X160198Y35995D01*
X158909Y36165D01*
D02*
G37*
G36*
X64968D02*
X63680Y35995D01*
X62479Y35497D01*
X61447Y34706D01*
X60656Y33675D01*
X60158Y32474D01*
X59989Y31185D01*
X60158Y29896D01*
X60656Y28695D01*
X61447Y27664D01*
X62479Y26873D01*
X63680Y26375D01*
X64968Y26205D01*
X66257Y26375D01*
X67458Y26873D01*
X68490Y27664D01*
X69281Y28695D01*
X69778Y29896D01*
X69948Y31185D01*
X69778Y32474D01*
X69281Y33675D01*
X68490Y34706D01*
X67458Y35497D01*
X66257Y35995D01*
X64968Y36165D01*
D02*
G37*
G36*
X290250Y24493D02*
Y14500D01*
X300243D01*
X300153Y15648D01*
X299767Y17255D01*
X299134Y18782D01*
X298271Y20191D01*
X297198Y21448D01*
X295941Y22521D01*
X294532Y23384D01*
X293005Y24017D01*
X291398Y24403D01*
X290250Y24493D01*
D02*
G37*
G36*
X252851Y36165D02*
X251562Y35995D01*
X250361Y35497D01*
X249329Y34706D01*
X248538Y33675D01*
X248041Y32474D01*
X247871Y31185D01*
X248041Y29896D01*
X248538Y28695D01*
X249329Y27664D01*
X250361Y26873D01*
X251562Y26375D01*
X252851Y26205D01*
X254139Y26375D01*
X255340Y26873D01*
X256372Y27664D01*
X257163Y28695D01*
X257660Y29896D01*
X257830Y31185D01*
X257660Y32474D01*
X257163Y33675D01*
X256372Y34706D01*
X255340Y35497D01*
X254139Y35995D01*
X252851Y36165D01*
D02*
G37*
G36*
X144630Y30685D02*
X140216D01*
X140320Y29896D01*
X140817Y28695D01*
X141609Y27664D01*
X142640Y26873D01*
X143841Y26375D01*
X144630Y26271D01*
Y30685D01*
D02*
G37*
G36*
X56103D02*
X51689D01*
Y26271D01*
X52478Y26375D01*
X53679Y26873D01*
X54710Y27664D01*
X55501Y28695D01*
X55999Y29896D01*
X56103Y30685D01*
D02*
G37*
G36*
X50689D02*
X46275D01*
X46379Y29896D01*
X46876Y28695D01*
X47668Y27664D01*
X48699Y26873D01*
X49900Y26375D01*
X50689Y26271D01*
Y30685D01*
D02*
G37*
G36*
X289250Y13500D02*
X279257D01*
X279347Y12352D01*
X279733Y10745D01*
X280365Y9218D01*
X281229Y7809D01*
X282302Y6552D01*
X283559Y5479D01*
X284968Y4615D01*
X286495Y3983D01*
X288102Y3597D01*
X289250Y3507D01*
Y13500D01*
D02*
G37*
G36*
X24743D02*
X14750D01*
Y3507D01*
X15898Y3597D01*
X17505Y3983D01*
X19032Y4615D01*
X20441Y5479D01*
X21698Y6552D01*
X22771Y7809D01*
X23634Y9218D01*
X24267Y10745D01*
X24653Y12352D01*
X24743Y13500D01*
D02*
G37*
G36*
X13750D02*
X3757D01*
X3847Y12352D01*
X4233Y10745D01*
X4865Y9218D01*
X5729Y7809D01*
X6802Y6552D01*
X8059Y5479D01*
X9468Y4615D01*
X10995Y3983D01*
X12602Y3597D01*
X13750Y3507D01*
Y13500D01*
D02*
G37*
G36*
X300243D02*
X290250D01*
Y3507D01*
X291398Y3597D01*
X293005Y3983D01*
X294532Y4615D01*
X295941Y5479D01*
X297198Y6552D01*
X298271Y7809D01*
X299134Y9218D01*
X299767Y10745D01*
X300153Y12352D01*
X300243Y13500D01*
D02*
G37*
G36*
X289250Y24493D02*
X288102Y24403D01*
X286495Y24017D01*
X284968Y23384D01*
X283559Y22521D01*
X282302Y21448D01*
X281229Y20191D01*
X280365Y18782D01*
X279733Y17255D01*
X279347Y15648D01*
X279257Y14500D01*
X289250D01*
Y24493D01*
D02*
G37*
G36*
X14750D02*
Y14500D01*
X24743D01*
X24653Y15648D01*
X24267Y17255D01*
X23634Y18782D01*
X22771Y20191D01*
X21698Y21448D01*
X20441Y22521D01*
X19032Y23384D01*
X17505Y24017D01*
X15898Y24403D01*
X14750Y24493D01*
D02*
G37*
G36*
X13750D02*
X12602Y24403D01*
X10995Y24017D01*
X9468Y23384D01*
X8059Y22521D01*
X6802Y21448D01*
X5729Y20191D01*
X4865Y18782D01*
X4233Y17255D01*
X3847Y15648D01*
X3757Y14500D01*
X13750D01*
Y24493D01*
D02*
G37*
G36*
X150044Y30685D02*
X145630D01*
Y26271D01*
X146419Y26375D01*
X147620Y26873D01*
X148651Y27664D01*
X149442Y28695D01*
X149940Y29896D01*
X150044Y30685D01*
D02*
G37*
G36*
X168752Y51908D02*
X167617Y51758D01*
X166560Y51320D01*
X165652Y50624D01*
X164955Y49716D01*
X164517Y48658D01*
X164368Y47524D01*
X164517Y46389D01*
X164955Y45332D01*
X165652Y44424D01*
X166560Y43727D01*
X167617Y43289D01*
X168752Y43140D01*
X169887Y43289D01*
X170944Y43727D01*
X171852Y44424D01*
X172549Y45332D01*
X172987Y46389D01*
X173136Y47524D01*
X172987Y48658D01*
X172549Y49716D01*
X171852Y50624D01*
X170944Y51320D01*
X169887Y51758D01*
X168752Y51908D01*
D02*
G37*
G36*
X74811D02*
X73676Y51758D01*
X72619Y51320D01*
X71711Y50624D01*
X71014Y49716D01*
X70576Y48658D01*
X70427Y47524D01*
X70576Y46389D01*
X71014Y45332D01*
X71711Y44424D01*
X72619Y43727D01*
X73676Y43289D01*
X74811Y43140D01*
X75946Y43289D01*
X77003Y43727D01*
X77911Y44424D01*
X78608Y45332D01*
X79046Y46389D01*
X79195Y47524D01*
X79046Y48658D01*
X78608Y49716D01*
X77911Y50624D01*
X77003Y51320D01*
X75946Y51758D01*
X74811Y51908D01*
D02*
G37*
G36*
X239571Y36099D02*
Y31685D01*
X243985D01*
X243881Y32474D01*
X243383Y33675D01*
X242592Y34706D01*
X241561Y35497D01*
X240360Y35995D01*
X239571Y36099D01*
D02*
G37*
G36*
X262693Y51908D02*
X261558Y51758D01*
X260501Y51320D01*
X259593Y50624D01*
X258896Y49716D01*
X258458Y48658D01*
X258309Y47524D01*
X258458Y46389D01*
X258896Y45332D01*
X259593Y44424D01*
X260501Y43727D01*
X261558Y43289D01*
X262693Y43140D01*
X263828Y43289D01*
X264885Y43727D01*
X265793Y44424D01*
X266490Y45332D01*
X266928Y46389D01*
X267077Y47524D01*
X266928Y48658D01*
X266490Y49716D01*
X265793Y50624D01*
X264885Y51320D01*
X263828Y51758D01*
X262693Y51908D01*
D02*
G37*
G36*
X242220Y56834D02*
X240932Y56664D01*
X239731Y56167D01*
X238699Y55375D01*
X237908Y54344D01*
X237411Y53143D01*
X237241Y51854D01*
X237411Y50565D01*
X237908Y49365D01*
X238699Y48333D01*
X239731Y47542D01*
X240932Y47044D01*
X242220Y46875D01*
X243509Y47044D01*
X244710Y47542D01*
X245742Y48333D01*
X246533Y49365D01*
X247030Y50565D01*
X247200Y51854D01*
X247030Y53143D01*
X246533Y54344D01*
X245742Y55375D01*
X244710Y56167D01*
X243509Y56664D01*
X242220Y56834D01*
D02*
G37*
G36*
X148280D02*
X146991Y56664D01*
X145790Y56167D01*
X144758Y55375D01*
X143967Y54344D01*
X143470Y53143D01*
X143300Y51854D01*
X143470Y50565D01*
X143967Y49365D01*
X144758Y48333D01*
X145790Y47542D01*
X146991Y47044D01*
X148280Y46875D01*
X149568Y47044D01*
X150769Y47542D01*
X151801Y48333D01*
X152592Y49365D01*
X153089Y50565D01*
X153259Y51854D01*
X153089Y53143D01*
X152592Y54344D01*
X151801Y55375D01*
X150769Y56167D01*
X149568Y56664D01*
X148280Y56834D01*
D02*
G37*
G36*
X54339D02*
X53050Y56664D01*
X51849Y56167D01*
X50817Y55375D01*
X50026Y54344D01*
X49529Y53143D01*
X49359Y51854D01*
X49529Y50565D01*
X50026Y49365D01*
X50817Y48333D01*
X51849Y47542D01*
X53050Y47044D01*
X54339Y46875D01*
X55627Y47044D01*
X56828Y47542D01*
X57860Y48333D01*
X58651Y49365D01*
X59149Y50565D01*
X59318Y51854D01*
X59149Y53143D01*
X58651Y54344D01*
X57860Y55375D01*
X56828Y56167D01*
X55627Y56664D01*
X54339Y56834D01*
D02*
G37*
G36*
X50689Y36099D02*
X49900Y35995D01*
X48699Y35497D01*
X47668Y34706D01*
X46876Y33675D01*
X46379Y32474D01*
X46275Y31685D01*
X50689D01*
Y36099D01*
D02*
G37*
G36*
X243985Y30685D02*
X239571D01*
Y26271D01*
X240360Y26375D01*
X241561Y26873D01*
X242592Y27664D01*
X243383Y28695D01*
X243881Y29896D01*
X243985Y30685D01*
D02*
G37*
G36*
X238571D02*
X234157D01*
X234261Y29896D01*
X234758Y28695D01*
X235550Y27664D01*
X236581Y26873D01*
X237782Y26375D01*
X238571Y26271D01*
Y30685D01*
D02*
G37*
G36*
X51689Y36099D02*
Y31685D01*
X56103D01*
X55999Y32474D01*
X55501Y33675D01*
X54710Y34706D01*
X53679Y35497D01*
X52478Y35995D01*
X51689Y36099D01*
D02*
G37*
G36*
X238571D02*
X237782Y35995D01*
X236581Y35497D01*
X235550Y34706D01*
X234758Y33675D01*
X234261Y32474D01*
X234157Y31685D01*
X238571D01*
Y36099D01*
D02*
G37*
G36*
X145630D02*
Y31685D01*
X150044D01*
X149940Y32474D01*
X149442Y33675D01*
X148651Y34706D01*
X147620Y35497D01*
X146419Y35995D01*
X145630Y36099D01*
D02*
G37*
G36*
X144630D02*
X143841Y35995D01*
X142640Y35497D01*
X141609Y34706D01*
X140817Y33675D01*
X140320Y32474D01*
X140216Y31685D01*
X144630D01*
Y36099D01*
D02*
G37*
G36*
X168752Y308600D02*
X167617Y308451D01*
X166560Y308013D01*
X165652Y307316D01*
X164955Y306409D01*
X164517Y305351D01*
X164368Y304217D01*
X164517Y303082D01*
X164955Y302025D01*
X165652Y301117D01*
X166560Y300420D01*
X167617Y299982D01*
X168752Y299833D01*
X169887Y299982D01*
X170944Y300420D01*
X171852Y301117D01*
X172549Y302025D01*
X172987Y303082D01*
X173136Y304217D01*
X172987Y305351D01*
X172549Y306409D01*
X171852Y307316D01*
X170944Y308013D01*
X169887Y308451D01*
X168752Y308600D01*
D02*
G37*
G36*
X74811D02*
X73676Y308451D01*
X72619Y308013D01*
X71711Y307316D01*
X71014Y306409D01*
X70576Y305351D01*
X70427Y304217D01*
X70576Y303082D01*
X71014Y302025D01*
X71711Y301117D01*
X72619Y300420D01*
X73676Y299982D01*
X74811Y299833D01*
X75946Y299982D01*
X77003Y300420D01*
X77911Y301117D01*
X78608Y302025D01*
X79046Y303082D01*
X79195Y304217D01*
X79046Y305351D01*
X78608Y306409D01*
X77911Y307316D01*
X77003Y308013D01*
X75946Y308451D01*
X74811Y308600D01*
D02*
G37*
G36*
X229228Y303876D02*
X228094Y303727D01*
X227036Y303289D01*
X226129Y302592D01*
X225432Y301684D01*
X224994Y300627D01*
X224844Y299492D01*
X224994Y298358D01*
X225432Y297300D01*
X226129Y296392D01*
X227036Y295695D01*
X228094Y295257D01*
X229228Y295108D01*
X230363Y295257D01*
X231420Y295695D01*
X232328Y296392D01*
X233025Y297300D01*
X233463Y298358D01*
X233612Y299492D01*
X233463Y300627D01*
X233025Y301684D01*
X232328Y302592D01*
X231420Y303289D01*
X230363Y303727D01*
X229228Y303876D01*
D02*
G37*
G36*
X262693Y308600D02*
X261558Y308451D01*
X260501Y308013D01*
X259593Y307316D01*
X258896Y306409D01*
X258458Y305351D01*
X258309Y304217D01*
X258458Y303082D01*
X258896Y302025D01*
X259593Y301117D01*
X260501Y300420D01*
X261558Y299982D01*
X262693Y299833D01*
X263828Y299982D01*
X264885Y300420D01*
X265793Y301117D01*
X266490Y302025D01*
X266928Y303082D01*
X267077Y304217D01*
X266928Y305351D01*
X266490Y306409D01*
X265793Y307316D01*
X264885Y308013D01*
X263828Y308451D01*
X262693Y308600D01*
D02*
G37*
G36*
X189941Y324074D02*
X188652Y323904D01*
X187451Y323407D01*
X186420Y322616D01*
X185628Y321584D01*
X185131Y320383D01*
X184961Y319094D01*
X185131Y317806D01*
X185628Y316605D01*
X186420Y315573D01*
X187451Y314782D01*
X188652Y314285D01*
X189941Y314115D01*
X191230Y314285D01*
X192431Y314782D01*
X193462Y315573D01*
X194253Y316605D01*
X194751Y317806D01*
X194921Y319094D01*
X194751Y320383D01*
X194253Y321584D01*
X193462Y322616D01*
X192431Y323407D01*
X191230Y323904D01*
X189941Y324074D01*
D02*
G37*
G36*
X114626D02*
X113337Y323904D01*
X112136Y323407D01*
X111105Y322616D01*
X110313Y321584D01*
X109816Y320383D01*
X109646Y319094D01*
X109816Y317806D01*
X110313Y316605D01*
X111105Y315573D01*
X112136Y314782D01*
X113337Y314285D01*
X114626Y314115D01*
X115915Y314285D01*
X117116Y314782D01*
X118147Y315573D01*
X118938Y316605D01*
X119436Y317806D01*
X119606Y319094D01*
X119436Y320383D01*
X118938Y321584D01*
X118147Y322616D01*
X117116Y323407D01*
X115915Y323904D01*
X114626Y324074D01*
D02*
G37*
G36*
X94941D02*
X93652Y323904D01*
X92451Y323407D01*
X91420Y322616D01*
X90628Y321584D01*
X90131Y320383D01*
X89961Y319094D01*
X90131Y317806D01*
X90628Y316605D01*
X91420Y315573D01*
X92451Y314782D01*
X93652Y314285D01*
X94941Y314115D01*
X96230Y314285D01*
X97431Y314782D01*
X98462Y315573D01*
X99253Y316605D01*
X99751Y317806D01*
X99921Y319094D01*
X99751Y320383D01*
X99253Y321584D01*
X98462Y322616D01*
X97431Y323407D01*
X96230Y323904D01*
X94941Y324074D01*
D02*
G37*
G36*
X61819Y304865D02*
X60530Y304696D01*
X59329Y304198D01*
X58298Y303407D01*
X57506Y302376D01*
X57009Y301175D01*
X56839Y299886D01*
X57009Y298597D01*
X57506Y297396D01*
X58298Y296365D01*
X59329Y295573D01*
X60530Y295076D01*
X61819Y294906D01*
X63108Y295076D01*
X64309Y295573D01*
X65340Y296365D01*
X66131Y297396D01*
X66629Y298597D01*
X66799Y299886D01*
X66629Y301175D01*
X66131Y302376D01*
X65340Y303407D01*
X64309Y304198D01*
X63108Y304696D01*
X61819Y304865D01*
D02*
G37*
G36*
X201500Y301884D02*
X200365Y301735D01*
X199308Y301297D01*
X198400Y300600D01*
X197703Y299692D01*
X197265Y298635D01*
X197116Y297500D01*
X197265Y296365D01*
X197703Y295308D01*
X198400Y294400D01*
X199308Y293703D01*
X200365Y293265D01*
X201500Y293116D01*
X202635Y293265D01*
X203692Y293703D01*
X204600Y294400D01*
X205297Y295308D01*
X205735Y296365D01*
X205884Y297500D01*
X205735Y298635D01*
X205297Y299692D01*
X204600Y300600D01*
X203692Y301297D01*
X202635Y301735D01*
X201500Y301884D01*
D02*
G37*
G36*
X102500D02*
X101365Y301735D01*
X100308Y301297D01*
X99400Y300600D01*
X98703Y299692D01*
X98265Y298635D01*
X98116Y297500D01*
X98265Y296365D01*
X98703Y295308D01*
X99400Y294400D01*
X100308Y293703D01*
X101365Y293265D01*
X102500Y293116D01*
X103635Y293265D01*
X104692Y293703D01*
X105600Y294400D01*
X106297Y295308D01*
X106735Y296365D01*
X106884Y297500D01*
X106735Y298635D01*
X106297Y299692D01*
X105600Y300600D01*
X104692Y301297D01*
X103635Y301735D01*
X102500Y301884D01*
D02*
G37*
G36*
X155760Y304865D02*
X154471Y304696D01*
X153270Y304198D01*
X152239Y303407D01*
X151447Y302376D01*
X150950Y301175D01*
X150780Y299886D01*
X150950Y298597D01*
X151447Y297396D01*
X152239Y296365D01*
X153270Y295573D01*
X154471Y295076D01*
X155760Y294906D01*
X157049Y295076D01*
X158250Y295573D01*
X159281Y296365D01*
X160072Y297396D01*
X160570Y298597D01*
X160740Y299886D01*
X160570Y301175D01*
X160072Y302376D01*
X159281Y303407D01*
X158250Y304198D01*
X157049Y304696D01*
X155760Y304865D01*
D02*
G37*
G36*
X135287Y303876D02*
X134153Y303727D01*
X133095Y303289D01*
X132187Y302592D01*
X131491Y301684D01*
X131053Y300627D01*
X130903Y299492D01*
X131053Y298358D01*
X131491Y297300D01*
X132187Y296392D01*
X133095Y295695D01*
X134153Y295257D01*
X135287Y295108D01*
X136422Y295257D01*
X137479Y295695D01*
X138387Y296392D01*
X139084Y297300D01*
X139522Y298358D01*
X139671Y299492D01*
X139522Y300627D01*
X139084Y301684D01*
X138387Y302592D01*
X137479Y303289D01*
X136422Y303727D01*
X135287Y303876D01*
D02*
G37*
G36*
X41346D02*
X40212Y303727D01*
X39154Y303289D01*
X38247Y302592D01*
X37550Y301684D01*
X37112Y300627D01*
X36962Y299492D01*
X37112Y298358D01*
X37550Y297300D01*
X38247Y296392D01*
X39154Y295695D01*
X40212Y295257D01*
X41346Y295108D01*
X42481Y295257D01*
X43538Y295695D01*
X44446Y296392D01*
X45143Y297300D01*
X45581Y298358D01*
X45730Y299492D01*
X45581Y300627D01*
X45143Y301684D01*
X44446Y302592D01*
X43538Y303289D01*
X42481Y303727D01*
X41346Y303876D01*
D02*
G37*
G36*
X249701Y304865D02*
X248412Y304696D01*
X247211Y304198D01*
X246180Y303407D01*
X245388Y302376D01*
X244891Y301175D01*
X244721Y299886D01*
X244891Y298597D01*
X245388Y297396D01*
X246180Y296365D01*
X247211Y295573D01*
X248412Y295076D01*
X249701Y294906D01*
X250990Y295076D01*
X252191Y295573D01*
X253222Y296365D01*
X254013Y297396D01*
X254511Y298597D01*
X254680Y299886D01*
X254511Y301175D01*
X254013Y302376D01*
X253222Y303407D01*
X252191Y304198D01*
X250990Y304696D01*
X249701Y304865D01*
D02*
G37*
G36*
X209626Y324074D02*
X208337Y323904D01*
X207136Y323407D01*
X206105Y322616D01*
X205313Y321584D01*
X204816Y320383D01*
X204646Y319094D01*
X204816Y317806D01*
X205313Y316605D01*
X206105Y315573D01*
X207136Y314782D01*
X208337Y314285D01*
X209626Y314115D01*
X210915Y314285D01*
X212116Y314782D01*
X213147Y315573D01*
X213938Y316605D01*
X214436Y317806D01*
X214606Y319094D01*
X214436Y320383D01*
X213938Y321584D01*
X213147Y322616D01*
X212116Y323407D01*
X210915Y323904D01*
X209626Y324074D01*
D02*
G37*
G36*
X252851Y325535D02*
X251562Y325365D01*
X250361Y324868D01*
X249329Y324076D01*
X248538Y323045D01*
X248041Y321844D01*
X247871Y320555D01*
X248041Y319266D01*
X248538Y318065D01*
X249329Y317034D01*
X250361Y316243D01*
X251562Y315745D01*
X252851Y315576D01*
X254139Y315745D01*
X255340Y316243D01*
X256372Y317034D01*
X257163Y318065D01*
X257660Y319266D01*
X257830Y320555D01*
X257660Y321844D01*
X257163Y323045D01*
X256372Y324076D01*
X255340Y324868D01*
X254139Y325365D01*
X252851Y325535D01*
D02*
G37*
G36*
X239071D02*
X237782Y325365D01*
X236581Y324868D01*
X235550Y324076D01*
X234758Y323045D01*
X234261Y321844D01*
X234091Y320555D01*
X234261Y319266D01*
X234758Y318065D01*
X235550Y317034D01*
X236581Y316243D01*
X237782Y315745D01*
X239071Y315576D01*
X240360Y315745D01*
X241561Y316243D01*
X242592Y317034D01*
X243383Y318065D01*
X243881Y319266D01*
X244051Y320555D01*
X243881Y321844D01*
X243383Y323045D01*
X242592Y324076D01*
X241561Y324868D01*
X240360Y325365D01*
X239071Y325535D01*
D02*
G37*
G36*
X158909D02*
X157621Y325365D01*
X156420Y324868D01*
X155388Y324076D01*
X154597Y323045D01*
X154100Y321844D01*
X153930Y320555D01*
X154100Y319266D01*
X154597Y318065D01*
X155388Y317034D01*
X156420Y316243D01*
X157621Y315745D01*
X158909Y315576D01*
X160198Y315745D01*
X161399Y316243D01*
X162431Y317034D01*
X163222Y318065D01*
X163719Y319266D01*
X163889Y320555D01*
X163719Y321844D01*
X163222Y323045D01*
X162431Y324076D01*
X161399Y324868D01*
X160198Y325365D01*
X158909Y325535D01*
D02*
G37*
G36*
X13750Y336493D02*
X12602Y336403D01*
X10995Y336017D01*
X9468Y335384D01*
X8059Y334521D01*
X6802Y333448D01*
X5729Y332191D01*
X4865Y330782D01*
X4233Y329255D01*
X3847Y327648D01*
X3757Y326500D01*
X13750D01*
Y336493D01*
D02*
G37*
G36*
X290250D02*
Y326500D01*
X300243D01*
X300153Y327648D01*
X299767Y329255D01*
X299134Y330782D01*
X298271Y332191D01*
X297198Y333448D01*
X295941Y334521D01*
X294532Y335384D01*
X293005Y336017D01*
X291398Y336403D01*
X290250Y336493D01*
D02*
G37*
G36*
X289250D02*
X288102Y336403D01*
X286495Y336017D01*
X284968Y335384D01*
X283559Y334521D01*
X282302Y333448D01*
X281229Y332191D01*
X280365Y330782D01*
X279733Y329255D01*
X279347Y327648D01*
X279257Y326500D01*
X289250D01*
Y336493D01*
D02*
G37*
G36*
X14750D02*
Y326500D01*
X24743D01*
X24653Y327648D01*
X24267Y329255D01*
X23634Y330782D01*
X22771Y332191D01*
X21698Y333448D01*
X20441Y334521D01*
X19032Y335384D01*
X17505Y336017D01*
X15898Y336403D01*
X14750Y336493D01*
D02*
G37*
G36*
X289250Y325500D02*
X279257D01*
X279347Y324352D01*
X279733Y322745D01*
X280365Y321218D01*
X281229Y319809D01*
X282302Y318552D01*
X283559Y317479D01*
X284968Y316616D01*
X286495Y315983D01*
X288102Y315597D01*
X289250Y315507D01*
Y325500D01*
D02*
G37*
G36*
X24743D02*
X14750D01*
Y315507D01*
X15898Y315597D01*
X17505Y315983D01*
X19032Y316616D01*
X20441Y317479D01*
X21698Y318552D01*
X22771Y319809D01*
X23634Y321218D01*
X24267Y322745D01*
X24653Y324352D01*
X24743Y325500D01*
D02*
G37*
G36*
X13750D02*
X3757D01*
X3847Y324352D01*
X4233Y322745D01*
X4865Y321218D01*
X5729Y319809D01*
X6802Y318552D01*
X8059Y317479D01*
X9468Y316616D01*
X10995Y315983D01*
X12602Y315597D01*
X13750Y315507D01*
Y325500D01*
D02*
G37*
G36*
X300243D02*
X290250D01*
Y315507D01*
X291398Y315597D01*
X293005Y315983D01*
X294532Y316616D01*
X295941Y317479D01*
X297198Y318552D01*
X298271Y319809D01*
X299134Y321218D01*
X299767Y322745D01*
X300153Y324352D01*
X300243Y325500D01*
D02*
G37*
G36*
X145130Y325535D02*
X143841Y325365D01*
X142640Y324868D01*
X141609Y324076D01*
X140817Y323045D01*
X140320Y321844D01*
X140150Y320555D01*
X140320Y319266D01*
X140817Y318065D01*
X141609Y317034D01*
X142640Y316243D01*
X143841Y315745D01*
X145130Y315576D01*
X146419Y315745D01*
X147620Y316243D01*
X148651Y317034D01*
X149442Y318065D01*
X149940Y319266D01*
X150110Y320555D01*
X149940Y321844D01*
X149442Y323045D01*
X148651Y324076D01*
X147620Y324868D01*
X146419Y325365D01*
X145130Y325535D01*
D02*
G37*
G36*
X64968D02*
X63680Y325365D01*
X62479Y324868D01*
X61447Y324076D01*
X60656Y323045D01*
X60158Y321844D01*
X59989Y320555D01*
X60158Y319266D01*
X60656Y318065D01*
X61447Y317034D01*
X62479Y316243D01*
X63680Y315745D01*
X64968Y315576D01*
X66257Y315745D01*
X67458Y316243D01*
X68490Y317034D01*
X69281Y318065D01*
X69778Y319266D01*
X69948Y320555D01*
X69778Y321844D01*
X69281Y323045D01*
X68490Y324076D01*
X67458Y324868D01*
X66257Y325365D01*
X64968Y325535D01*
D02*
G37*
G36*
X51189D02*
X49900Y325365D01*
X48699Y324868D01*
X47668Y324076D01*
X46876Y323045D01*
X46379Y321844D01*
X46209Y320555D01*
X46379Y319266D01*
X46876Y318065D01*
X47668Y317034D01*
X48699Y316243D01*
X49900Y315745D01*
X51189Y315576D01*
X52478Y315745D01*
X53679Y316243D01*
X54710Y317034D01*
X55501Y318065D01*
X55999Y319266D01*
X56169Y320555D01*
X55999Y321844D01*
X55501Y323045D01*
X54710Y324076D01*
X53679Y324868D01*
X52478Y325365D01*
X51189Y325535D01*
D02*
G37*
G36*
X202000Y261818D02*
Y258000D01*
X205818D01*
X205735Y258635D01*
X205297Y259692D01*
X204600Y260600D01*
X203692Y261297D01*
X202635Y261735D01*
X202000Y261818D01*
D02*
G37*
G36*
X121500Y189969D02*
X120956Y189897D01*
X119983Y189494D01*
X119147Y188853D01*
X118506Y188017D01*
X118103Y187044D01*
X118031Y186500D01*
X121500D01*
Y189969D01*
D02*
G37*
G36*
X125969Y185500D02*
X122500D01*
Y182031D01*
X123044Y182103D01*
X124017Y182506D01*
X124853Y183147D01*
X125494Y183983D01*
X125897Y184956D01*
X125969Y185500D01*
D02*
G37*
G36*
X121500D02*
X118031D01*
X118103Y184956D01*
X118506Y183983D01*
X119147Y183147D01*
X119983Y182506D01*
X120956Y182103D01*
X121500Y182031D01*
Y185500D01*
D02*
G37*
G36*
X122500Y189969D02*
Y186500D01*
X125969D01*
X125897Y187044D01*
X125494Y188017D01*
X124853Y188853D01*
X124017Y189494D01*
X123044Y189897D01*
X122500Y189969D01*
D02*
G37*
G36*
X185969Y195500D02*
X182500D01*
Y192031D01*
X183044Y192103D01*
X184017Y192506D01*
X184853Y193147D01*
X185494Y193983D01*
X185897Y194956D01*
X185969Y195500D01*
D02*
G37*
G36*
X181500D02*
X178031D01*
X178103Y194956D01*
X178506Y193983D01*
X179147Y193147D01*
X179983Y192506D01*
X180956Y192103D01*
X181500Y192031D01*
Y195500D01*
D02*
G37*
G36*
X122000Y200034D02*
X120956Y199897D01*
X119983Y199494D01*
X119147Y198853D01*
X118506Y198017D01*
X118103Y197044D01*
X117965Y196000D01*
X118103Y194956D01*
X118506Y193983D01*
X119147Y193147D01*
X119983Y192506D01*
X120956Y192103D01*
X122000Y191965D01*
X123044Y192103D01*
X124017Y192506D01*
X124853Y193147D01*
X125494Y193983D01*
X125897Y194956D01*
X126034Y196000D01*
X125897Y197044D01*
X125494Y198017D01*
X124853Y198853D01*
X124017Y199494D01*
X123044Y199897D01*
X122000Y200034D01*
D02*
G37*
G36*
X206000Y166818D02*
X205365Y166735D01*
X204308Y166297D01*
X203400Y165600D01*
X202703Y164692D01*
X202265Y163635D01*
X202182Y163000D01*
X206000D01*
Y166818D01*
D02*
G37*
G36*
X98000D02*
Y163000D01*
X101818D01*
X101735Y163635D01*
X101297Y164692D01*
X100600Y165600D01*
X99692Y166297D01*
X98635Y166735D01*
X98000Y166818D01*
D02*
G37*
G36*
X97000D02*
X96365Y166735D01*
X95308Y166297D01*
X94400Y165600D01*
X93703Y164692D01*
X93265Y163635D01*
X93182Y163000D01*
X97000D01*
Y166818D01*
D02*
G37*
G36*
X207000D02*
Y163000D01*
X210818D01*
X210735Y163635D01*
X210297Y164692D01*
X209600Y165600D01*
X208692Y166297D01*
X207635Y166735D01*
X207000Y166818D01*
D02*
G37*
G36*
X182000Y190034D02*
X180956Y189897D01*
X179983Y189494D01*
X179147Y188853D01*
X178506Y188017D01*
X178103Y187044D01*
X177965Y186000D01*
X178103Y184956D01*
X178506Y183983D01*
X179147Y183147D01*
X179983Y182506D01*
X180956Y182103D01*
X182000Y181965D01*
X183044Y182103D01*
X184017Y182506D01*
X184853Y183147D01*
X185494Y183983D01*
X185897Y184956D01*
X186035Y186000D01*
X185897Y187044D01*
X185494Y188017D01*
X184853Y188853D01*
X184017Y189494D01*
X183044Y189897D01*
X182000Y190034D01*
D02*
G37*
G36*
Y180034D02*
X180956Y179897D01*
X179983Y179494D01*
X179147Y178853D01*
X178506Y178017D01*
X178103Y177044D01*
X177965Y176000D01*
X178103Y174956D01*
X178506Y173983D01*
X179147Y173147D01*
X179983Y172506D01*
X180956Y172103D01*
X182000Y171966D01*
X183044Y172103D01*
X184017Y172506D01*
X184853Y173147D01*
X185494Y173983D01*
X185897Y174956D01*
X186035Y176000D01*
X185897Y177044D01*
X185494Y178017D01*
X184853Y178853D01*
X184017Y179494D01*
X183044Y179897D01*
X182000Y180034D01*
D02*
G37*
G36*
X122000D02*
X120956Y179897D01*
X119983Y179494D01*
X119147Y178853D01*
X118506Y178017D01*
X118103Y177044D01*
X117965Y176000D01*
X118103Y174956D01*
X118506Y173983D01*
X119147Y173147D01*
X119983Y172506D01*
X120956Y172103D01*
X122000Y171966D01*
X123044Y172103D01*
X124017Y172506D01*
X124853Y173147D01*
X125494Y173983D01*
X125897Y174956D01*
X126034Y176000D01*
X125897Y177044D01*
X125494Y178017D01*
X124853Y178853D01*
X124017Y179494D01*
X123044Y179897D01*
X122000Y180034D01*
D02*
G37*
G36*
X181500Y199969D02*
X180956Y199897D01*
X179983Y199494D01*
X179147Y198853D01*
X178506Y198017D01*
X178103Y197044D01*
X178031Y196500D01*
X181500D01*
Y199969D01*
D02*
G37*
G36*
X201000Y257000D02*
X197182D01*
X197265Y256365D01*
X197703Y255308D01*
X198400Y254400D01*
X199308Y253703D01*
X200365Y253265D01*
X201000Y253182D01*
Y257000D01*
D02*
G37*
G36*
X106818D02*
X103000D01*
Y253182D01*
X103635Y253265D01*
X104692Y253703D01*
X105600Y254400D01*
X106297Y255308D01*
X106735Y256365D01*
X106818Y257000D01*
D02*
G37*
G36*
X102000D02*
X98182D01*
X98265Y256365D01*
X98703Y255308D01*
X99400Y254400D01*
X100308Y253703D01*
X101365Y253265D01*
X102000Y253182D01*
Y257000D01*
D02*
G37*
G36*
X205818D02*
X202000D01*
Y253182D01*
X202635Y253265D01*
X203692Y253703D01*
X204600Y254400D01*
X205297Y255308D01*
X205735Y256365D01*
X205818Y257000D01*
D02*
G37*
G36*
X201000Y261818D02*
X200365Y261735D01*
X199308Y261297D01*
X198400Y260600D01*
X197703Y259692D01*
X197265Y258635D01*
X197182Y258000D01*
X201000D01*
Y261818D01*
D02*
G37*
G36*
X103000D02*
Y258000D01*
X106818D01*
X106735Y258635D01*
X106297Y259692D01*
X105600Y260600D01*
X104692Y261297D01*
X103635Y261735D01*
X103000Y261818D01*
D02*
G37*
G36*
X102000D02*
X101365Y261735D01*
X100308Y261297D01*
X99400Y260600D01*
X98703Y259692D01*
X98265Y258635D01*
X98182Y258000D01*
X102000D01*
Y261818D01*
D02*
G37*
G36*
X206500Y206884D02*
X205365Y206735D01*
X204308Y206297D01*
X203400Y205600D01*
X202703Y204692D01*
X202265Y203635D01*
X202116Y202500D01*
X202265Y201365D01*
X202703Y200308D01*
X203400Y199400D01*
X204308Y198703D01*
X205365Y198265D01*
X206500Y198116D01*
X207635Y198265D01*
X208692Y198703D01*
X209600Y199400D01*
X210297Y200308D01*
X210735Y201365D01*
X210884Y202500D01*
X210735Y203635D01*
X210297Y204692D01*
X209600Y205600D01*
X208692Y206297D01*
X207635Y206735D01*
X206500Y206884D01*
D02*
G37*
G36*
X97500D02*
X96365Y206735D01*
X95308Y206297D01*
X94400Y205600D01*
X93703Y204692D01*
X93265Y203635D01*
X93116Y202500D01*
X93265Y201365D01*
X93703Y200308D01*
X94400Y199400D01*
X95308Y198703D01*
X96365Y198265D01*
X97500Y198116D01*
X98635Y198265D01*
X99692Y198703D01*
X100600Y199400D01*
X101297Y200308D01*
X101735Y201365D01*
X101884Y202500D01*
X101735Y203635D01*
X101297Y204692D01*
X100600Y205600D01*
X99692Y206297D01*
X98635Y206735D01*
X97500Y206884D01*
D02*
G37*
G36*
X182500Y199969D02*
Y196500D01*
X185969D01*
X185897Y197044D01*
X185494Y198017D01*
X184853Y198853D01*
X184017Y199494D01*
X183044Y199897D01*
X182500Y199969D01*
D02*
G37*
G36*
X94941Y239074D02*
X93652Y238904D01*
X92451Y238407D01*
X91420Y237616D01*
X90628Y236584D01*
X90131Y235383D01*
X89961Y234095D01*
X90131Y232806D01*
X90628Y231605D01*
X91420Y230573D01*
X92451Y229782D01*
X93652Y229285D01*
X94941Y229115D01*
X96230Y229285D01*
X97431Y229782D01*
X98462Y230573D01*
X99253Y231605D01*
X99751Y232806D01*
X99921Y234095D01*
X99751Y235383D01*
X99253Y236584D01*
X98462Y237616D01*
X97431Y238407D01*
X96230Y238904D01*
X94941Y239074D01*
D02*
G37*
G36*
X209626D02*
X208337Y238904D01*
X207136Y238407D01*
X206105Y237616D01*
X205313Y236584D01*
X204816Y235383D01*
X204646Y234095D01*
X204816Y232806D01*
X205313Y231605D01*
X206105Y230573D01*
X207136Y229782D01*
X208337Y229285D01*
X209626Y229115D01*
X210915Y229285D01*
X212116Y229782D01*
X213147Y230573D01*
X213938Y231605D01*
X214436Y232806D01*
X214606Y234095D01*
X214436Y235383D01*
X213938Y236584D01*
X213147Y237616D01*
X212116Y238407D01*
X210915Y238904D01*
X209626Y239074D01*
D02*
G37*
G36*
X189941D02*
X188652Y238904D01*
X187451Y238407D01*
X186420Y237616D01*
X185628Y236584D01*
X185131Y235383D01*
X184961Y234095D01*
X185131Y232806D01*
X185628Y231605D01*
X186420Y230573D01*
X187451Y229782D01*
X188652Y229285D01*
X189941Y229115D01*
X191230Y229285D01*
X192431Y229782D01*
X193462Y230573D01*
X194253Y231605D01*
X194751Y232806D01*
X194921Y234095D01*
X194751Y235383D01*
X194253Y236584D01*
X193462Y237616D01*
X192431Y238407D01*
X191230Y238904D01*
X189941Y239074D01*
D02*
G37*
G36*
X114626D02*
X113337Y238904D01*
X112136Y238407D01*
X111105Y237616D01*
X110313Y236584D01*
X109816Y235383D01*
X109646Y234095D01*
X109816Y232806D01*
X110313Y231605D01*
X111105Y230573D01*
X112136Y229782D01*
X113337Y229285D01*
X114626Y229115D01*
X115915Y229285D01*
X117116Y229782D01*
X118147Y230573D01*
X118938Y231605D01*
X119436Y232806D01*
X119606Y234095D01*
X119436Y235383D01*
X118938Y236584D01*
X118147Y237616D01*
X117116Y238407D01*
X115915Y238904D01*
X114626Y239074D01*
D02*
G37*
%LPD*%
D12*
X289750Y326000D02*
D03*
X14250D02*
D03*
Y14000D02*
D03*
X289750D02*
D03*
D13*
X182000Y196000D02*
D03*
Y186000D02*
D03*
Y176000D02*
D03*
Y166000D02*
D03*
Y156000D02*
D03*
Y146000D02*
D03*
Y136000D02*
D03*
X122000D02*
D03*
Y146000D02*
D03*
Y176000D02*
D03*
Y186000D02*
D03*
Y196000D02*
D03*
Y156000D02*
D03*
Y166000D02*
D03*
Y126000D02*
D03*
Y116000D02*
D03*
Y106000D02*
D03*
Y96000D02*
D03*
Y86000D02*
D03*
Y76000D02*
D03*
Y66000D02*
D03*
X182000D02*
D03*
Y76000D02*
D03*
Y86000D02*
D03*
Y96000D02*
D03*
Y106000D02*
D03*
Y116000D02*
D03*
Y126000D02*
D03*
D14*
X97500Y202500D02*
D03*
Y162500D02*
D03*
X102500Y297500D02*
D03*
Y257500D02*
D03*
X206500Y202500D02*
D03*
Y162500D02*
D03*
X201500Y297500D02*
D03*
Y257500D02*
D03*
X229228Y52248D02*
D03*
Y299492D02*
D03*
X262693Y304217D02*
D03*
Y47524D02*
D03*
X135287Y52248D02*
D03*
Y299492D02*
D03*
X168752Y304217D02*
D03*
Y47524D02*
D03*
X41346Y52248D02*
D03*
Y299492D02*
D03*
X74811Y304217D02*
D03*
Y47524D02*
D03*
D15*
X252851Y320555D02*
D03*
X239071D02*
D03*
X249701Y299886D02*
D03*
X242220Y51854D02*
D03*
X252851Y31185D02*
D03*
X239071D02*
D03*
X158909Y320555D02*
D03*
X145130D02*
D03*
X155760Y299886D02*
D03*
X148280Y51854D02*
D03*
X158909Y31185D02*
D03*
X145130D02*
D03*
X64968Y320555D02*
D03*
X51189D02*
D03*
X61819Y299886D02*
D03*
X54339Y51854D02*
D03*
X64968Y31185D02*
D03*
X51189D02*
D03*
X209626Y319094D02*
D03*
X189941D02*
D03*
X209626Y234095D02*
D03*
X189941D02*
D03*
X114626Y319094D02*
D03*
X94941D02*
D03*
X114626Y234095D02*
D03*
X94941D02*
D03*
M02*
